Normalized EMG Linear Envelopes
nRows=262
nColumns=4

endheader
time	 med_gas_r	  soleus_r	 tib_ant_r	
2.4948	  0.087238	  0.099939	  0.011328	
2.52806	  0.085701	  0.099280	  0.011176	
2.56133	  0.084186	  0.099651	  0.011040	
2.59459	  0.082823	  0.100647	  0.010925	
2.62786	  0.081688	  0.102150	  0.010857	
2.66112	  0.080947	  0.104146	  0.010846	
2.69438	  0.080430	  0.106663	  0.010870	
2.72765	  0.080047	  0.109498	  0.010905	
2.76091	  0.080068	  0.112288	  0.010953	
2.79418	  0.080926	  0.114317	  0.010992	
2.82744	  0.082533	  0.115123	  0.010981	
2.8607	  0.084492	  0.114855	  0.010931	
2.89397	  0.086402	  0.113753	  0.010866	
2.92723	  0.088146	  0.112204	  0.010820	
2.9605	  0.089549	  0.110492	  0.010809	
2.99376	  0.090280	  0.108773	  0.010824	
3.02702	  0.089944	  0.107180	  0.010834	
3.06029	  0.088377	  0.105911	  0.010828	
3.09355	  0.086123	  0.104980	  0.010833	
3.12682	  0.083987	  0.104251	  0.010892	
3.16008	  0.082545	  0.103608	  0.010988	
3.19334	  0.081961	  0.102818	  0.011105	
3.22661	  0.082091	  0.101814	  0.011281	
3.25987	  0.082684	  0.100676	  0.011503	
3.29314	  0.083519	  0.099601	  0.011704	
3.3264	  0.084310	  0.098908	  0.011864	
3.35966	  0.085029	  0.098813	  0.011994	
3.39293	  0.085824	  0.099408	  0.012053	
3.42619	  0.086916	  0.100664	  0.012000	
3.45946	  0.088331	  0.102673	  0.011852	
3.49272	  0.089673	  0.105283	  0.011662	
3.52598	  0.090476	  0.108012	  0.011481	
3.55925	  0.090529	  0.110338	  0.011367	
3.59251	  0.089915	  0.111977	  0.011324	
3.62578	  0.088930	  0.112693	  0.011287	
3.65904	  0.087940	  0.111973	  0.011221	
3.6923	  0.087179	  0.110334	  0.011158	
3.72557	  0.086722	  0.108380	  0.011108	
3.75883	  0.086558	  0.106523	  0.011053	
3.7921	  0.086653	  0.104859	  0.010976	
3.82536	  0.086842	  0.103535	  0.010868	
3.85862	  0.087213	  0.102675	  0.010755	
3.89189	  0.087898	  0.102389	  0.010696	
3.92515	  0.089068	  0.102777	  0.010708	
3.95842	  0.090803	  0.103847	  0.010759	
3.99168	  0.092847	  0.105541	  0.010835	
4.02494	  0.094393	  0.107434	  0.010940	
4.05821	  0.094999	  0.109037	  0.011040	
4.09147	  0.094627	  0.110444	  0.011128	
4.12474	  0.093359	  0.111896	  0.011311	
4.158	  0.091797	  0.113304	  0.011765	
4.19126	  0.090465	  0.114883	  0.012635	
4.22453	  0.089394	  0.117011	  0.014061	
4.25779	  0.088493	  0.119998	  0.016133	
4.29106	  0.088100	  0.123914	  0.018978	
4.32432	  0.088767	  0.128737	  0.022713	
4.35758	  0.090835	  0.133964	  0.027299	
4.39085	  0.094130	  0.138643	  0.032387	
4.42411	  0.098254	  0.143083	  0.037536	
4.45738	  0.102867	  0.148533	  0.042138	
4.49064	  0.107676	  0.155472	  0.046133	
4.5239	  0.111932	  0.163273	  0.050002	
4.55717	  0.114768	  0.171050	  0.054122	
4.59043	  0.116192	  0.178180	  0.058044	
4.6237	  0.117364	  0.184615	  0.061804	
4.65696	  0.118993	  0.190312	  0.066501	
4.69022	  0.121062	  0.196334	  0.072787	
4.72349	  0.123008	  0.203297	  0.081002	
4.75675	  0.125155	  0.210486	  0.090832	
4.79002	  0.128183	  0.217585	  0.100815	
4.82328	  0.131844	  0.223733	  0.109677	
4.85654	  0.134697	  0.228809	  0.116895	
4.88981	  0.136486	  0.232838	  0.122556	
4.92307	  0.137636	  0.235070	  0.127215	
4.95634	  0.138096	  0.234552	  0.131111	
4.9896	  0.137698	  0.231821	  0.134426	
5.02286	  0.137032	  0.229867	  0.137323	
5.05613	  0.136457	  0.230907	  0.141105	
5.08939	  0.135903	  0.234991	  0.146543	
5.12266	  0.135197	  0.241566	  0.153290	
5.15592	  0.135494	  0.249968	  0.161574	
5.18918	  0.136915	  0.259417	  0.170790	
5.22245	  0.138278	  0.269989	  0.178739	
5.25571	  0.138998	  0.280489	  0.183862	
5.28898	  0.140202	  0.289563	  0.185694	
5.32224	  0.142852	  0.295695	  0.184740	
5.3555	  0.146115	  0.296783	  0.182024	
5.38877	  0.148635	  0.292204	  0.178389	
5.42203	  0.151166	  0.285245	  0.175751	
5.4553	  0.154429	  0.278628	  0.176071	
5.48856	  0.157953	  0.275012	  0.178468	
5.52182	  0.160250	  0.276849	  0.181628	
5.55509	  0.161867	  0.283485	  0.185200	
5.58835	  0.163598	  0.293563	  0.189740	
5.62162	  0.164610	  0.306245	  0.195892	
5.65488	  0.163933	  0.320089	  0.203597	
5.68814	  0.162866	  0.332682	  0.211304	
5.72141	  0.162425	  0.341607	  0.218149	
5.75467	  0.162156	  0.343809	  0.224459	
5.78794	  0.162112	  0.340293	  0.230719	
5.8212	  0.163228	  0.334435	  0.234851	
5.85446	  0.165192	  0.328323	  0.234156	
5.88773	  0.166913	  0.322507	  0.228967	
5.92099	  0.168726	  0.316761	  0.221490	
5.95426	  0.171649	  0.310360	  0.214676	
5.98752	  0.175305	  0.303690	  0.210337	
6.02078	  0.178164	  0.299301	  0.208601	
6.05405	  0.180392	  0.298512	  0.208518	
6.08731	  0.182147	  0.302028	  0.209244	
6.12058	  0.182780	  0.313004	  0.211476	
6.15384	  0.182560	  0.333828	  0.215084	
6.1871	  0.182761	  0.362879	  0.218911	
6.22037	  0.183375	  0.397155	  0.223352	
6.25363	  0.183376	  0.435629	  0.228976	
6.2869	  0.183450	  0.476628	  0.235848	
6.32016	  0.183844	  0.517802	  0.243238	
6.35342	  0.184624	  0.553865	  0.251591	
6.38669	  0.187198	  0.580665	  0.260717	
6.41995	  0.192110	  0.597795	  0.270312	
6.45322	  0.198150	  0.605003	  0.279983	
6.48648	  0.204333	  0.603203	  0.288518	
6.51974	  0.209658	  0.593190	  0.293344	
6.55301	  0.212238	  0.577174	  0.293225	
6.58627	  0.211761	  0.559385	  0.290660	
6.61954	  0.209687	  0.545210	  0.288046	
6.6528	  0.206887	  0.536722	  0.286604	
6.68606	  0.204590	  0.534388	  0.286699	
6.71933	  0.204540	  0.539025	  0.288554	
6.75259	  0.206110	  0.548725	  0.293072	
6.78586	  0.207457	  0.563275	  0.301962	
6.81912	  0.209534	  0.580695	  0.315226	
6.85238	  0.213116	  0.595834	  0.331475	
6.88565	  0.217509	  0.605506	  0.346855	
6.91891	  0.223406	  0.611560	  0.357817	
6.95218	  0.230676	  0.617914	  0.364381	
6.98544	  0.237713	  0.625380	  0.367123	
7.0187	  0.242698	  0.634582	  0.366339	
7.05197	  0.244595	  0.647886	  0.363854	
7.08523	  0.243075	  0.665957	  0.361892	
7.1185	  0.238055	  0.685854	  0.361280	
7.15176	  0.231004	  0.704921	  0.360141	
7.18502	  0.224455	  0.719247	  0.358516	
7.21829	  0.219798	  0.726430	  0.357926	
7.25155	  0.216654	  0.727352	  0.359611	
7.28482	  0.214972	  0.724946	  0.365827	
7.31808	  0.214007	  0.720506	  0.377998	
7.35134	  0.213294	  0.712510	  0.396124	
7.38461	  0.213446	  0.699833	  0.418498	
7.41787	  0.214582	  0.683265	  0.444823	
7.45114	  0.215506	  0.665957	  0.473399	
7.4844	  0.215822	  0.653774	  0.501306	
7.51766	  0.216293	  0.649907	  0.526314	
7.55093	  0.217898	  0.653947	  0.545914	
7.58419	  0.220639	  0.661716	  0.557472	
7.61746	  0.224250	  0.671507	  0.562902	
7.65072	  0.228113	  0.681402	  0.565577	
7.68398	  0.230967	  0.688205	  0.566744	
7.71725	  0.231247	  0.693099	  0.567272	
7.75051	  0.229233	  0.698446	  0.568600	
7.78378	  0.225785	  0.700649	  0.568198	
7.81704	  0.220893	  0.697162	  0.564960	
7.8503	  0.214700	  0.691508	  0.559460	
7.88357	  0.208479	  0.684766	  0.554788	
7.91683	  0.203769	  0.675198	  0.553503	
7.9501	  0.200855	  0.661347	  0.556728	
7.98336	  0.199023	  0.644242	  0.563624	
8.01662	  0.197887	  0.626961	  0.571149	
8.04989	  0.197835	  0.611155	  0.574871	
8.08315	  0.198936	  0.596024	  0.574178	
8.11642	  0.200501	  0.580129	  0.571109	
8.14968	  0.202326	  0.566855	  0.566800	
8.18294	  0.203959	  0.561469	  0.562453	
8.21621	  0.204609	  0.564808	  0.560065	
8.24947	  0.204529	  0.576339	  0.562493	
8.28274	  0.205119	  0.596371	  0.569111	
8.316	  0.207178	  0.621692	  0.576936	
8.34926	  0.210143	  0.646551	  0.583836	
8.38253	  0.212828	  0.664892	  0.592020	
8.41579	  0.215974	  0.675490	  0.602679	
8.44906	  0.219420	  0.680807	  0.617743	
8.48232	  0.222567	  0.682292	  0.637061	
8.51558	  0.224956	  0.682087	  0.655134	
8.54885	  0.226914	  0.682788	  0.667705	
8.58211	  0.228376	  0.686842	  0.672887	
8.61538	  0.228555	  0.693222	  0.673072	
8.64864	  0.227029	  0.697641	  0.668207	
8.6819	  0.224313	  0.695299	  0.657130	
8.71517	  0.220626	  0.685773	  0.638956	
8.74843	  0.215629	  0.671028	  0.616050	
8.7817	  0.210662	  0.655554	  0.592227	
8.81496	  0.207279	  0.643349	  0.571784	
8.84822	  0.205106	  0.635193	  0.558410	
8.88149	  0.202335	  0.629906	  0.556891	
8.91475	  0.200219	  0.623088	  0.568676	
8.94802	  0.199981	  0.610912	  0.591067	
8.98128	  0.200986	  0.592926	  0.615158	
9.01454	  0.201702	  0.571598	  0.630237	
9.04781	  0.203275	  0.554962	  0.636805	
9.08107	  0.207317	  0.547541	  0.638288	
9.11434	  0.213210	  0.550660	  0.634811	
9.1476	  0.218632	  0.561550	  0.629660	
9.18086	  0.222973	  0.576365	  0.625634	
9.21413	  0.226493	  0.591932	  0.620639	
9.24739	  0.228820	  0.609243	  0.612990	
9.28066	  0.230002	  0.627992	  0.605680	
9.31392	  0.231927	  0.648806	  0.598133	
9.34718	  0.235041	  0.670831	  0.589551	
9.38045	  0.237074	  0.689796	  0.581761	
9.41371	  0.235917	  0.698561	  0.574796	
9.44698	  0.233069	  0.695913	  0.569525	
9.48024	  0.229816	  0.681990	  0.565743	
9.5135	  0.226376	  0.658154	  0.561643	
9.54677	  0.221638	  0.629720	  0.554824	
9.58003	  0.216292	  0.601238	  0.541682	
9.6133	  0.211708	  0.577131	  0.522682	
9.64656	  0.209288	  0.560548	  0.504426	
9.67982	  0.209011	  0.553653	  0.488927	
9.71309	  0.209074	  0.555846	  0.477544	
9.74635	  0.208428	  0.565209	  0.472605	
9.77962	  0.208811	  0.579187	  0.474886	
9.81288	  0.211059	  0.594297	  0.482064	
9.84614	  0.214539	  0.606128	  0.491452	
9.87941	  0.217500	  0.616012	  0.498749	
9.91267	  0.218948	  0.625845	  0.498278	
9.94594	  0.218520	  0.636023	  0.491201	
9.9792	  0.215619	  0.646381	  0.484229	
10.0125	  0.210322	  0.653768	  0.480242	
10.0457	  0.201580	  0.654680	  0.478367	
10.079	  0.189725	  0.650005	  0.475003	
10.1123	  0.175749	  0.640801	  0.466459	
10.1455	  0.161460	  0.625325	  0.452988	
10.1788	  0.148888	  0.602052	  0.437026	
10.212	  0.138945	  0.573946	  0.424534	
10.2453	  0.131209	  0.546275	  0.418361	
10.2786	  0.125229	  0.522413	  0.417666	
10.3118	  0.120417	  0.502715	  0.422688	
10.3451	  0.116501	  0.486255	  0.432697	
10.3784	  0.114150	  0.472122	  0.442492	
10.4116	  0.113771	  0.460021	  0.445170	
10.4449	  0.114913	  0.446912	  0.439532	
10.4782	  0.116904	  0.430514	  0.427485	
10.5114	  0.118909	  0.412079	  0.409967	
10.5447	  0.119613	  0.394915	  0.388997	
10.578	  0.118552	  0.380558	  0.366859	
10.6112	  0.116127	  0.369399	  0.345826	
10.6445	  0.113067	  0.361322	  0.328779	
10.6777	  0.110222	  0.354053	  0.315375	
10.711	  0.108250	  0.346380	  0.303944	
10.7443	  0.107640	  0.339676	  0.293410	
10.7775	  0.108576	  0.336800	  0.283333	
10.8108	  0.111053	  0.337914	  0.274865	
10.8441	  0.114699	  0.341947	  0.267087	
10.8773	  0.118823	  0.347656	  0.259998	
10.9106	  0.122667	  0.352849	  0.255549	
10.9439	  0.125540	  0.354735	  0.254531	
10.9771	  0.127002	  0.352265	  0.257273	
11.0104	  0.127268	  0.344677	  0.262985	
11.0436	  0.126789	  0.334257	  0.270413	
11.0769	  0.125495	  0.322688	  0.278049	
11.1102	  0.123371	  0.310507	  0.283411	
11.1434	  0.120785	  0.298502	  0.282949	
11.1767	  0.117923	  0.289044	  0.272002	
